<svg width="65" height="64" fill="none" xmlns="http://www.w3.org/2000/svg"><path fill-rule="evenodd" clip-rule="evenodd" d="M48.595 38.398l-2.344.9c-3.247 1.116-8.07 1.13-11.148-.315-3.564-1.675-6.112-6.654-2.102-9.906 2.773-2.249 6.614-2.821 10.175-2.713 3.766.115 4.653 1.103 5.161 1.098l-.01-4.482c-1.944-.96-4.922-1.994-7.073-2.485-6.134-1.317-9.263-1.453-15.748-.76-2.662.284-6.347 1.637-8.558 3.16-4.586 3.16-6.74 9.101-4.471 14.305 3.213 7.367 11.99 9.805 19.354 9.787 4.378-.01 12.57-1.262 16.73-3.746l.034-4.843z" fill="#CBCECF"/><path d="M37.069 1.794l.169.105c9.21 5.708 16.31 10.108 24.16 17.244l.028.026c.24.24.48.475.703.694 2.724 2.673 3.44 3.376 2.444 8.552l-.055.228c-2.544 10.59-4.506 18.752-8.817 28.475l-.015.033c-.16.32-.304.613-.44.889-1.682 3.436-2.124 4.339-7.322 4.985l-.233.018c-10.783.835-19.093 1.479-29.61.353l-.032-.003c-.453-.07-.723-.11-.976-.146-3.764-.55-4.753-.694-6.97-5.475l-.09-.218C5.89 47.48 2.713 39.715.528 29.298l-.006-.032c-.038-.236-.103-.618-.165-.98-.643-3.774-.813-4.766 3.018-8.367l.026-.02.151-.13c8.24-7.062 14.59-12.505 23.75-17.817l.03-.017c.291-.152.591-.312.873-.46 3.363-1.782 4.247-2.25 8.83.305l.033.015zm-.623 1.403l-.17-.106.002-.002c-3.842-2.138-4.581-1.747-7.37-.27-.266.141-.55.292-.885.466C18.994 8.524 12.696 13.92 4.528 20.922l-.126.108.001.001c-3.232 3.04-3.091 3.864-2.556 6.998.042.248.088.517.162.971 2.157 10.276 5.31 17.981 9.4 27.976l.071.175c1.864 4.013 2.688 4.134 5.806 4.59l.988.145c10.355 1.106 18.605.468 29.305-.361l.166-.012c4.387-.546 4.755-1.296 6.15-4.145.137-.282.285-.582.441-.896 4.247-9.584 6.193-17.682 8.717-28.186l.037-.156c.842-4.376.248-4.96-2.013-7.178-.212-.208-.438-.43-.688-.679-7.743-7.037-14.794-11.407-23.942-17.076z" fill="#CBCECF"/><path fill-rule="evenodd" clip-rule="evenodd" d="M43.964 28.95h9.454v3.123h-2.246v4.76H46.21v-4.76h-2.246V28.95z" fill="#CBCECF" stroke="#CBCECF" stroke-width=".756" stroke-miterlimit="22.926"/></svg>