<svg width="60" height="24" fill="none" xmlns="http://www.w3.org/2000/svg"><g clip-path="url(#clip0_1_3358)"><path fill-rule="evenodd" clip-rule="evenodd" d="M0 23.668h5.94v-13.6L14.157 24c2.738-4.625 5.493-9.293 8.232-13.935v13.603h22.039l-2.758-4.542H28.329v-5.058H38.84l-2.759-4.542H28.33V4.588h5.009L30.578.046C27.85.046 25.159 0 22.39 0l-8.225 14.353L5.94 0H0v23.668zM60 .046H31.627l2.759 4.542h8.582v14.538L45.933 24l2.974-4.874V4.588h8.334L60 .046z" fill="#fff"/></g><defs><clipPath id="clip0_1_3358"><path fill="#fff" d="M0 0h60v24H0z"/></clipPath></defs></svg>