<svg width="32" height="32" viewBox="0 0 32 32" fill="none" xmlns="http://www.w3.org/2000/svg">
<path fill-rule="evenodd" clip-rule="evenodd" d="M20.7912 17.3904C21.9523 16.1906 22.6668 14.556 22.6668 12.7546C22.6668 9.07266 19.6821 6.08789 16.0002 6.08789C12.3183 6.08789 9.3335 9.07266 9.3335 12.7546C9.3335 14.556 10.048 16.1906 11.2091 17.3904L10.0183 24.5354L11.995 25.9122L16.0002 23.6236L20.0053 25.9122L21.982 24.5354L20.7912 17.3904ZM20.0002 12.7546C20.0002 14.9637 18.2093 16.7546 16.0002 16.7546C13.791 16.7546 12.0002 14.9637 12.0002 12.7546C12.0002 10.5454 13.791 8.75456 16.0002 8.75456C18.2093 8.75456 20.0002 10.5454 20.0002 12.7546ZM18.3549 18.9934C17.6227 19.2699 16.8291 19.4212 16.0002 19.4212C15.1712 19.4212 14.3776 19.2699 13.6454 18.9934L13.1104 22.2035L16.0002 20.5522L18.8899 22.2035L18.3549 18.9934Z" fill="white"/>
</svg>
