<svg width="32" height="32" viewBox="0 0 32 32" fill="none" xmlns="http://www.w3.org/2000/svg">
<path fill-rule="evenodd" clip-rule="evenodd" d="M9.14954 12.7287L5.85693 7.2002H8.80013L10.72 10.4002H26.0664L21.7737 18.6929H12.6939L9.14954 12.7287ZM12.3452 13.0669L14.2379 16.0262H20.1256L21.7516 13.0669H12.3452Z" fill="white"/>
<path d="M16.1496 22.8262C16.1496 23.9308 15.2542 24.8262 14.1496 24.8262C13.0451 24.8262 12.1496 23.9308 12.1496 22.8262C12.1496 21.7216 13.0451 20.8262 14.1496 20.8262C15.2542 20.8262 16.1496 21.7216 16.1496 22.8262Z" fill="white"/>
<path d="M19.483 24.8262C20.5875 24.8262 21.483 23.9308 21.483 22.8262C21.483 21.7216 20.5875 20.8262 19.483 20.8262C18.3784 20.8262 17.483 21.7216 17.483 22.8262C17.483 23.9308 18.3784 24.8262 19.483 24.8262Z" fill="white"/>
</svg>
