<svg width="32" height="32" viewBox="0 0 32 32" fill="none" xmlns="http://www.w3.org/2000/svg">
<path fill-rule="evenodd" clip-rule="evenodd" d="M15.9998 6.6665C10.8452 6.6665 6.6665 10.8452 6.6665 15.9998C6.6665 19.8821 9.03688 23.2108 12.4093 24.6175C13.4849 25.0662 14.6623 25.3193 15.8974 25.3326C15.9315 25.333 15.9656 25.3332 15.9998 25.3332C16.034 25.3332 16.0682 25.333 16.1023 25.3326C17.3373 25.3193 18.5148 25.0662 19.5904 24.6175C22.9628 23.2108 25.3332 19.8821 25.3332 15.9998C25.3332 10.8452 21.1545 6.6665 15.9998 6.6665ZM17.2451 17.3332C17.0694 18.6513 16.6371 19.8882 15.9998 20.9921C15.3626 19.8882 14.9302 18.6513 14.7546 17.3332H17.2451ZM19.9305 17.3332C19.7455 19.1012 19.1969 20.761 18.3607 22.2364C20.4742 21.4359 22.0746 19.5919 22.5331 17.3332H19.9305ZM22.5331 14.6665H19.9305C19.7455 12.8985 19.1969 11.2387 18.3606 9.76325C20.4742 10.5637 22.0746 12.4078 22.5331 14.6665ZM17.2451 14.6665H14.7546C14.9302 13.3484 15.3626 12.1115 15.9998 11.0076C16.637 12.1115 17.0694 13.3484 17.2451 14.6665ZM12.0692 14.6665C12.2541 12.8985 12.8028 11.2387 13.639 9.76325C11.5255 10.5637 9.92502 12.4078 9.46653 14.6665H12.0692ZM9.46653 17.3332C9.92502 19.5919 11.5255 21.4359 13.639 22.2364C12.8028 20.761 12.2541 19.1012 12.0692 17.3332H9.46653Z" fill="#CBCECF"/>
</svg>
