<svg width="48" height="48" viewBox="0 0 48 48" fill="none" xmlns="http://www.w3.org/2000/svg">
<path d="M16.7573 23.7573H20.7573V27.7573H24.7573V23.7573H28.7573V19.7573H24.7573V15.7573H20.7573V19.7573H16.7573V23.7573Z" fill="white"/>
<path fill-rule="evenodd" clip-rule="evenodd" d="M22.7573 33.7573C24.8293 33.7573 26.7786 33.2322 28.4794 32.3078L34.4142 38.2426L37.2426 35.4142L31.6468 29.8183C33.5796 27.6882 34.7573 24.8603 34.7573 21.7573C34.7573 15.1299 29.3847 9.75732 22.7573 9.75732C16.1299 9.75732 10.7573 15.1299 10.7573 21.7573C10.7573 28.3847 16.1299 33.7573 22.7573 33.7573ZM22.7573 29.7573C27.1756 29.7573 30.7573 26.1756 30.7573 21.7573C30.7573 17.339 27.1756 13.7573 22.7573 13.7573C18.339 13.7573 14.7573 17.339 14.7573 21.7573C14.7573 26.1756 18.339 29.7573 22.7573 29.7573Z" fill="white"/>
</svg>
