<svg width="56" height="56" viewBox="0 0 56 56" fill="none" xmlns="http://www.w3.org/2000/svg">
<path d="M31.5 32.6666C31.5 30.7336 29.933 29.1666 28 29.1666C26.067 29.1666 24.5 30.7336 24.5 32.6666C24.5 34.5996 26.067 36.1666 28 36.1666C29.933 36.1666 31.5 34.5996 31.5 32.6666Z" fill="#CBCECF"/>
<path fill-rule="evenodd" clip-rule="evenodd" d="M28 43.1666C22.201 43.1666 17.5 38.4656 17.5 32.6666L17.5 23.3333C17.5 17.5343 22.201 12.8333 28 12.8333C33.799 12.8333 38.5 17.5343 38.5 23.3333V32.6666C38.5 38.4656 33.799 43.1666 28 43.1666ZM22.1667 32.6666L22.1667 23.3333C22.1667 20.1116 24.7783 17.4999 28 17.4999C31.2217 17.4999 33.8333 20.1116 33.8333 23.3333V32.6666C33.8333 35.8882 31.2217 38.4999 28 38.4999C24.7783 38.4999 22.1667 35.8882 22.1667 32.6666Z" fill="#CBCECF"/>
</svg>
